<?xml version="1.0" encoding="UTF-8"?>
<svg width="44px" height="31px" viewBox="0 0 44 31" version="1.1" xmlns="http://www.w3.org/2000/svg" xmlns:xlink="http://www.w3.org/1999/xlink">
    <title>下载备份</title>
    <g id="设计" stroke="none" stroke-width="1" fill="none" fill-rule="evenodd">
        <g id="下载" transform="translate(-341.000000, -456.000000)" fill-rule="nonzero">
            <g id="下载备份" transform="translate(341.000000, 456.000000)">
                <path d="M11.1998203,30.8991867 C5.38614164,30.4218033 0.829730088,25.9268372 0.829730088,21.1719098 C0.829730088,15.0651839 5.12145383,10.5796709 10.6846244,9.87541224 C11.3983361,4.03810076 16.1863495,0.02051796 21.9811219,0.02051796 C27.7758943,0.02051796 32.5639076,4.03810076 33.2776194,9.88013881 C38.8455165,10.5796709 43.1325137,15.0699105 43.1325137,21.1719098 C43.1325137,25.9268372 38.5761021,30.4170768 32.7576969,30.8944601 C30.6401945,30.8944601 28.8393721,30.8991867 26.1735877,30.8944601 C25.6536652,30.8944601 18.3085786,30.8944601 17.7839295,30.8897336 C16.1532635,30.8991867 12.504353,30.8991867 11.1998203,30.8991867 L11.1998203,30.8991867 Z" id="路径" fill="#CFD8EA"></path>
                <path d="M15.5104503,17.8633122 L28.4990592,17.8633122 C29.2174975,17.8633122 29.7988654,18.411594 29.7988654,19.0969464 C29.7988654,19.4136265 29.671248,19.7019471 29.463279,19.9240958 L23.0398731,28.1010584 C22.6097554,28.6446138 21.8015123,28.7580514 21.224871,28.34684 C21.1256131,28.2759415 21.0358083,28.1955898 20.9696363,28.1010584 L14.4753319,19.8390176 C14.0499408,19.2954623 14.1633784,18.5203051 14.7352931,18.1138203 C14.9716215,17.9436638 15.2410359,17.8633122 15.5104503,17.8633122 Z" id="路径" fill="#FFFFFF"></path>
                <path d="M24.9588597,18.9031571 L19.003384,18.9031571 C18.6914306,18.9031571 18.4361959,18.6479224 18.4361959,18.335969 L18.4361959,9.59181816 C18.4361959,9.27986467 18.6914306,9.02463 19.003384,9.02463 L24.9588597,9.02463 C25.2708132,9.02463 25.5260479,9.27986467 25.5260479,9.59181816 L25.5260479,18.335969 C25.5260479,18.6479224 25.2708132,18.9031571 24.9588597,18.9031571 Z" id="路径" fill="#FFFFFF"></path>
            </g>
        </g>
    </g>
</svg>