<?xml version="1.0" encoding="UTF-8"?>
<svg width="456px" height="467px" viewBox="0 0 456 467" version="1.1" xmlns="http://www.w3.org/2000/svg" xmlns:xlink="http://www.w3.org/1999/xlink">
    <title>形状结合</title>
    <g id="视觉" stroke="none" stroke-width="1" fill="none" fill-rule="evenodd">
        <path d="M8.79283715,447.041855 L448.740097,447.041855 C455.105698,446.94162 456.988544,449.345623 454.388635,454.253863 C450.488771,461.616222 440.369265,467 420.285407,467 L30.1422069,467 L30.1422069,467 C22.4966503,466.693356 16.573913,465.478049 12.373995,463.35408 C9.30480438,461.801938 -6.53699317e-12,457.004237 -6.53699317e-12,450.166843 C-6.53699317e-12,447.844802 2.93094572,446.803139 8.79283715,447.041855 Z M431.220934,209.339114 C441.291564,209.652033 445.552442,214.328928 444.003567,223.3698 L424.143951,429.153164 C423.035366,435.974988 417.115098,439.3859 406.383147,439.3859 L43.1019878,439.3859 L43.1019878,439.3859 C35.6893778,439.888137 31.3532606,431.801623 30.0936362,415.126355 C28.8340118,398.451088 22.9274647,334.532237 12.373995,223.3698 C12.6515865,214.689416 13.2435697,214.934012 15.8078247,212.136563 C17.517328,210.271597 21.6494529,209.339114 28.2041995,209.339114 L431.220934,209.339114 Z M273.292676,21.1822757 L274.059529,21.9420681 C274.951626,22.8310634 275.834986,23.7286947 276.712117,24.6311586 C305.216119,53.9584272 314.727542,121.057376 316.706218,140.533618 C318.684894,160.00986 317.338086,159.832599 332.469945,165.000916 C336.764121,166.467601 340.565231,167.633705 344.282047,168.738799 L345.342054,169.053087 C345.871264,169.209608 346.399548,169.365349 346.928098,169.52101 L347.985905,169.83243 L349.046541,170.144875 C356.840082,172.442937 365.032653,174.9239 377.384198,179.791367 C386.231008,184.608087 391.990933,191.283945 394.663973,199.818942 L255.697641,199.818942 C268.803637,189.846735 277.104687,180.942922 280.600792,173.107502 C286.966567,158.840616 287.505372,130.268427 287.524378,127.935747 L287.524937,127.82606 L287.524937,127.82606 C287.524937,125.530397 286.490221,124.336571 284.42079,124.244582 C269.134655,127.847778 258.200899,129.649377 251.619524,129.649377 C241.74746,129.649377 236.374535,126.720356 232.507732,119.86336 C229.929863,115.29203 227.133215,115.29203 224.117786,119.86336 C221.544394,125.279335 216.335427,128.541341 208.490884,129.649377 C198.741238,131.026507 186.762446,128.330328 180.007491,126.644079 L179.327643,126.47345 C178.226638,126.195769 177.288559,125.953319 176.551605,125.772155 C173.112486,124.926722 170.713813,124.926722 169.355586,125.772155 C169.320616,125.603601 169.289496,125.474047 169.262226,125.383493 L169.236239,125.305939 C169.162129,125.112275 169.122668,125.26961 169.117856,125.777943 L169.117535,125.960387 C169.129085,128.305717 169.69502,136.267016 170.815339,149.844285 C172.355129,168.505172 182.866908,185.012537 202.350673,199.366379 L202.968932,199.818942 L60.9576623,199.818942 C66.5667292,188.460199 73.0252374,181.314241 80.3331866,178.381069 C81.2101405,178.029089 82.0672771,177.691105 82.9148828,177.363667 L83.5489607,177.120011 C84.2870084,176.837927 85.0197279,176.563255 85.7540102,176.293685 L86.3839385,176.063819 L87.2770697,175.742697 L87.4264515,175.689535 L88.176373,175.425003 C88.2767391,175.38986 88.37727,175.354764 88.4779823,175.319709 L89.0845676,175.109824 C96.9004679,172.421452 105.991185,169.909042 124.020167,165.000916 C135.078536,161.990438 138.147898,160.644922 139.76154,140.533618 C141.375182,120.422314 152.266653,50.0755658 179.490541,24.6311586 C190.619185,14.2299355 205.620257,0.1693574 228,0.00104630203 C248.365566,-0.152116797 261.627855,9.6935248 273.292676,21.1822757 Z M184.62653,109.097762 C182.566194,110.99737 180.49129,113.331596 183.829833,117.822453 C187.168376,122.313309 202.084541,122.308602 208.523845,120.686127 C214.96315,119.063652 220.823979,110.943085 212.367931,107.55792 C203.911883,104.172755 186.686866,107.198155 184.62653,109.097762 Z M241.278657,107.55792 C232.822609,110.943085 238.683438,119.063652 245.122742,120.686127 C251.562047,122.308602 266.478212,122.313309 269.816755,117.822453 C272.722524,113.913745 271.527365,111.638779 269.81021,109.862159 L269.588439,109.637977 C269.401726,109.453268 269.210829,109.273652 269.020057,109.097762 C266.959721,107.198155 249.734704,104.172755 241.278657,107.55792 Z M227.368518,43.7980595 C202.011745,43.7980595 183.439867,62.5014561 171.652886,99.9082491 C190.645751,98.0448911 209.428122,97.1132121 228,97.1132121 C246.571878,97.1132121 264.933261,98.0448911 283.084151,99.9082491 C271.297169,62.5014561 252.725291,43.7980595 227.368518,43.7980595 Z" id="形状结合" fill="#F30E0E"></path>
    </g>
</svg>