<?xml version="1.0" encoding="UTF-8"?>
<svg width="355px" height="336px" viewBox="0 0 355 336" version="1.1" xmlns="http://www.w3.org/2000/svg" xmlns:xlink="http://www.w3.org/1999/xlink">
    <title>形状结合备份</title>
    <g id="视觉" stroke="none" stroke-width="1" fill="none" fill-rule="evenodd">
        <path d="M309.379573,252.568622 C280.594875,285.217672 243.094875,304.908293 196.879573,311.640485 L178.73339,335.746784 L159.894162,311.640485 C115.77295,308.239112 77.9347538,288.548491 46.3795728,252.568622 C89.4138675,274.529921 133.017272,285.510571 177.189786,285.510571 C221.362301,285.510571 265.425563,274.529921 309.379573,252.568622 Z M354.379573,144.373811 C354.379573,168.773993 349.584639,188.121331 339.994773,202.415825 C311.351274,245.111342 251.405726,269.390846 178.879573,269.390846 C103.685084,269.390846 44.0944087,248.310787 14.8303052,202.415825 C4.94343507,186.910224 -9.09494702e-13,167.562886 -9.09494702e-13,144.373811 C48.8964631,191.348567 108.522987,214.835945 178.879573,214.835945 C249.236158,214.835945 307.736158,191.348567 354.379573,144.373811 Z M178.879573,0 C275.805546,0 354.379573,44.3238098 354.379573,99 C354.379573,153.67619 275.805546,198 178.879573,198 C81.9535993,198 3.37957284,153.67619 3.37957284,99 C3.37957284,44.3238098 81.9535993,0 178.879573,0 Z M177.879573,9 C105.254128,9 46.3795728,35.1913421 46.3795728,67.5 C46.3795728,99.8086579 105.254128,126 177.879573,126 C250.505017,126 309.379573,99.8086579 309.379573,67.5 C309.379573,35.1913421 250.505017,9 177.879573,9 Z M178.73339,63.482628 C224.175273,63.482628 258.11678,71.2020889 280.557909,86.6410106 C256.810911,102.787192 222.869405,110.860282 178.73339,110.860282 C134.597376,110.860282 100.655869,102.787192 76.9088714,86.6410106 C99.3500011,71.2020889 133.291507,63.482628 178.73339,63.482628 Z" id="形状结合备份" fill="#FFB209"></path>
    </g>
</svg>