<?xml version="1.0" encoding="UTF-8"?>
<svg width="1045px" height="847px" viewBox="0 0 1045 847" version="1.1" xmlns="http://www.w3.org/2000/svg" xmlns:xlink="http://www.w3.org/1999/xlink">
    <title>形状结合</title>
    <g id="视觉" stroke="none" stroke-width="1" fill="none" fill-rule="evenodd">
        <path d="M751.667561,718.91803 C707.318377,769.1927 649.541345,799.513321 578.336465,809.879893 L550.378263,847 L521.35227,809.879893 C453.373799,804.642285 395.075701,774.321664 346.457975,718.91803 C412.761811,752.735157 479.942486,769.64372 548,769.64372 C616.057514,769.64372 683.946701,752.735157 751.667561,718.91803 Z M821,552.314149 C821,589.886791 813.612346,619.678808 798.837038,641.690198 C754.705403,707.43493 662.346047,744.821747 550.603489,744.821747 C434.749772,744.821747 342.937175,712.361598 297.849361,641.690198 C282.616454,617.813883 275,588.021866 275,552.314149 C350.335801,624.648271 442.20363,660.815332 550.603489,660.815332 C659.003348,660.815332 749.135518,624.648271 821,552.314149 Z M593.847166,0 C749.60701,0 878.82848,115.855845 888.014841,260.769997 C978.449455,282.658072 1045.20367,362.096689 1045.00676,450.40375 C1045.00676,557.202461 1001.09452,655 885.550515,655 L885.550515,655 L849.3466,655 C839.751957,655 831.994586,647.829769 831.994586,638.961324 C831.994586,630.09288 839.751957,622.922649 849.3466,622.922649 L849.3466,622.922649 L885.550515,622.922649 C981.905229,622.922649 1010.2955,539.465573 1010.2955,450.40375 C1010.2955,373.040727 949.053102,303.980076 868.008989,289.639613 C865.559293,289.262233 825.139307,284.167594 786.352452,289.639613 C785.535887,289.828304 784.51518,289.828304 783.698614,289.828304 C775.328819,289.828304 767.77559,283.978904 766.550742,276.053912 C765.121752,267.374158 771.654275,259.071784 781.248918,257.750952 C807.787293,253.977146 834.529809,254.543217 852.290106,255.675359 C840.654049,130.951069 728.580452,32.0773513 593.643024,32.0773513 C511.986487,32.0773513 429.717526,70.3814826 379.702897,130.762379 C413.794502,157.367712 435.433484,196.992675 435.433484,241.334896 C435.433484,250.20334 427.676113,257.373572 418.08147,257.373572 C408.486827,257.373572 400.729456,250.20334 400.729456,241.334896 C400.729456,201.709933 378.273908,166.990917 344.794728,146.801055 C340.916042,144.348081 336.833215,142.272488 332.546247,140.385585 C331.52554,140.008204 330.300692,139.442133 329.075844,138.876062 C324.176452,136.989159 319.27706,135.102256 314.377668,133.781424 C313.765244,133.592734 313.15282,133.592734 312.540396,133.404043 C307.845145,132.271902 303.354035,131.32845 298.658784,130.573689 C297.229795,130.384999 296.004947,130.196308 294.575957,130.007618 C289.268283,129.252857 283.960608,128.875476 278.652933,128.875476 C211.490431,128.875476 156.780551,179.444477 156.780551,241.523586 C156.780551,241.963864 156.803234,242.425107 156.833477,242.893338 L156.931767,244.305021 C156.96201,244.773253 156.984693,245.234496 156.984693,245.674773 L156.984693,245.674773 L157.188834,248.693818 L156.984693,251.524172 C156.984693,253.599766 156.780551,255.675359 156.780551,257.562262 L156.780551,257.562262 L156.780551,267.751538 L146.981767,272.091415 C82.0648197,300.961031 34.9081696,370.399062 34.9081696,437.195429 C34.9081696,533.616173 73.6268268,626.922649 177.738912,626.922649 L177.738912,626.922649 L229.561102,626.922649 C239.155745,626.922649 246.913116,634.09288 246.913116,642.961324 C246.913116,651.829769 239.155745,659 229.561102,659 L229.561102,659 L177.738912,659 C54.4375406,659 0,551.164372 0,437.195429 C0,360.587167 49.8104876,284.167594 122.280664,247.561676 C122.280664,245.486083 122.076523,243.410489 122.076523,241.334896 C122.076523,161.330208 192.505286,96.4207442 278.857074,96.4207442 C284.777173,96.4207442 290.697272,96.7981248 296.41323,97.3641957 C298.250502,97.552886 299.883632,97.9302666 301.720904,98.1189569 C305.59959,98.6850278 309.682417,99.439789 313.561102,100.19455 C315.602516,100.760621 317.643929,101.138002 319.685343,101.704073 C323.155745,102.647524 326.83029,103.590976 330.300692,104.723117 C332.342106,105.477879 334.383519,106.04395 336.424933,106.798711 C340.099477,108.119543 343.56988,109.629065 347.040283,111.138588 C348.265131,111.704659 349.69412,112.27073 350.918968,112.8368 C407.670261,42.8326985 499.329724,0 593.847166,0 Z M550.603489,330 C699.939359,330 821,398.25206 821,482.445243 C821,566.638425 699.939359,634.890485 550.603489,634.890485 C401.26762,634.890485 280.206978,566.638425 280.206978,482.445243 C280.206978,398.25206 401.26762,330 550.603489,330 Z M549.062768,343.858658 C437.167231,343.858658 346.457975,384.189421 346.457975,433.939938 C346.457975,483.690455 437.167231,524.021218 549.062768,524.021218 C660.958306,524.021218 751.667561,483.690455 751.667561,433.939938 C751.667561,384.189421 660.958306,343.858658 549.062768,343.858658 Z M550.378263,427.753784 C620.39152,427.753784 672.685907,439.640603 707.261423,463.414241 C670.673928,488.276953 618.379541,500.708309 550.378263,500.708309 C482.376984,500.708309 430.082598,488.276953 393.495102,463.414241 C428.070619,439.640603 480.365006,427.753784 550.378263,427.753784 Z" id="形状结合" fill="#FFFFFF" fill-rule="nonzero"></path>
    </g>
</svg>