<?xml version="1.0" encoding="UTF-8"?>
<svg width="1130px" height="1024px" viewBox="0 0 1130 1024" version="1.1" xmlns="http://www.w3.org/2000/svg" xmlns:xlink="http://www.w3.org/1999/xlink">
    <title>形状结合</title>
    <g id="视觉" stroke="none" stroke-width="1" fill="none" fill-rule="evenodd">
        <path d="M544.964436,0 C666.611414,0 768.162413,61.4119901 822.060231,165.850193 L823.678888,169.028138 C831.985854,168.450208 840.311718,168.157451 848.640494,168.150426 C1033.35786,168.150426 1130,310.835335 1130,451.772727 C1130,527.304743 1102.97811,597.640332 1053.91818,649.8339 C997.828106,709.474843 917.578187,741 821.830093,741 L788,741 L788,928 C788,981.019336 745.019336,1024 692,1024 L438,1024 C384.980664,1024 342,981.019336 342,928 L342,741 L257.698182,741 C178.228321,741 111.239401,713.929298 63.9936591,662.71492 C22.7260783,617.985861 0,558.248712 0,494.490693 C0,380.422366 77.1846176,264.964986 224.854686,260.59224 C230.915248,198.022954 258.070358,141.52517 304.527801,95.5467538 C364.978236,35.7160355 454.853915,0 544.964436,0 Z M544.950702,68.8529676 C473.860981,68.8529676 403.235449,96.7473482 356.026787,143.474323 C314.498271,184.573924 293.538311,237.003393 295.407431,295.080005 L296.666786,334.242313 L256.032333,330.409902 C248.563834,329.701009 241.063857,329.340362 233.55895,329.329234 L233.558933,329.330551 C122.384079,329.330551 71.7502998,414.943078 71.7502998,494.497282 C71.7502998,540.737958 88.5050831,585.414302 117.716087,617.073883 C150.959225,653.099622 199.365442,672.140443 257.698182,672.140443 L342,672.14 L342,354 C342,300.980664 384.980664,258 438,258 L692,258 C745.019336,258 788,300.980664 788,354 L788,672.14 L821.830364,672.140443 C896.700899,672.140443 958.528797,648.477795 1000.62588,603.706563 C1037.7748,564.193697 1058.23624,510.232844 1058.23624,451.77141 C1058.23624,348.338425 992.639887,237.003393 848.627031,237.003393 C835.084497,237.003393 820.915718,238.02212 806.521711,240.039803 L778.332475,243.980283 L767.940389,218.534535 C729.077532,123.408187 647.800352,68.8529676 544.950702,68.8529676 Z M669,619 L473,619 C465.268014,619 459,625.268014 459,633 C459,640.6275 465.099752,646.830327 472.687355,646.996578 L473,647 L669,647 C676.731986,647 683,640.731986 683,633 C683,625.268014 676.731986,619 669,619 Z M669,545 L473,545 C465.268014,545 459,551.268014 459,559 C459,566.6275 465.099752,572.830327 472.687355,572.996578 L473,573 L669,573 C676.731986,573 683,566.731986 683,559 C683,551.268014 676.731986,545 669,545 Z M669,471 L473,471 C465.268014,471 459,477.268014 459,485 C459,492.6275 465.099752,498.830327 472.687355,498.996578 L473,499 L669,499 C676.731986,499 683,492.731986 683,485 C683,477.268014 676.731986,471 669,471 Z" id="形状结合" fill="#FFFFFF" fill-rule="nonzero"></path>
    </g>
</svg>