<?xml version="1.0" encoding="UTF-8"?>
<svg width="120px" height="28px" viewBox="0 0 120 28" version="1.1" xmlns="http://www.w3.org/2000/svg" xmlns:xlink="http://www.w3.org/1999/xlink">
    <title>logo_ehoney_white</title>
    <g id="设计" stroke="none" stroke-width="1" fill="none" fill-rule="evenodd">
        <g id="1-登录" transform="translate(-64.000000, -56.000000)" fill="#FFFFFF">
            <g id="logo_ehoney_white" transform="translate(64.000000, 56.000000)">
                <path d="M13.0759958,0.108842822 L11.3335372,4.64979027 L5.2563604,4.67480771 L5.2563604,23.2727236 L118.193956,23.2454421 L2.8195123,28 L0,24.8575385 L0,0.152538433 L13.0759958,0.108842822 Z M106.037504,0.126355027 L109.906326,7.77580368 L112.582495,12.5057969 L112.582495,21.0680989 L107.375758,21.0680989 L107.375758,12.6515999 L99.9872821,0.126355027 L106.037504,0.126355027 Z M56.5062182,0 C56.7553504,0 56.9573402,0.202743104 56.9573402,0.452804253 L56.9573402,0.452804253 L56.9573402,20.3761914 C56.9573402,20.6262525 56.7553504,20.8289956 56.5062182,20.8289956 L56.5062182,20.8289956 L39.1380225,20.8289956 C38.8888904,20.8289956 38.6869005,20.6262525 38.6869005,20.3761914 L38.6869005,20.3761914 L38.6869005,0.452804253 C38.6869005,0.202743104 38.8888904,0 39.1380225,0 L39.1380225,0 Z M34.5237891,0.0345489645 L34.5555932,20.8122645 L29.2929171,20.8122645 L29.2929171,12.0083914 L22.0083123,12.0083914 L22.0083123,20.8122645 L16.7454106,20.8122645 L16.6910504,0.0468878804 L21.9718842,0.0345489645 L22.0083123,7.59151235 L29.2929171,7.59151235 L29.2429553,0.0468878804 L34.5237891,0.0345489645 Z M79.6895679,0.100782907 L79.7106579,20.8122758 L66.2727495,10.1135302 L66.2799674,20.8122758 L61.0767266,20.8122758 L61.1043579,0.100782907 L74.5422663,10.4100037 L74.5776793,0.100782907 L79.6895679,0.100782907 Z M96.9937608,0.100816867 L95.251415,4.64176432 L89.1740126,4.66678175 L89.1740126,16.2462317 L97.2613889,16.2462317 L97.2613889,20.8121966 L83.9113365,20.8121966 L83.9113365,0.100816867 L96.9937608,0.100816867 Z M12.451643,11.5783406 L12.451643,15.9653346 L6.31277527,15.9653346 L6.31277527,11.5783406 L12.451643,11.5783406 Z M51.3183156,5.20724891 L44.3259251,5.20724891 C44.076793,5.20724891 43.8748031,5.40999202 43.8748031,5.66005316 L43.8748031,5.66005316 L43.8748031,15.1689425 C43.8748031,15.4190036 44.076793,15.6217467 44.3259251,15.6217467 L44.3259251,15.6217467 L51.3183156,15.6217467 C51.5674477,15.6217467 51.7694376,15.4190036 51.7694376,15.1689425 L51.7694376,15.1689425 L51.7694376,5.66005316 C51.7694376,5.40999202 51.5674477,5.20724891 51.3183156,5.20724891 L51.3183156,5.20724891 Z M96.3693516,8.06910763 L96.3693516,12.4561016 L90.2304839,12.4561016 L90.2304839,8.06910763 L96.3693516,8.06910763 Z M120,0.126355027 L113.449371,11.601094 L110.667527,6.59907862 L114.182331,0.126355027 L120,0.126355027 Z" id="形状结合"></path>
            </g>
        </g>
    </g>
</svg>